<svg width="20" height="19" viewBox="0 0 20 19" fill="none" xmlns="http://www.w3.org/2000/svg">
<path fill-rule="evenodd" clip-rule="evenodd" d="M1.86064 5.89262L8.31554 2.21888C9.29686 1.66037 10.4999 1.66037 11.4812 2.21888L17.9361 5.89262C17.9689 5.91126 17.9779 5.92591 17.9823 5.93376C17.9894 5.94656 17.9968 5.96833 17.9968 5.99691C17.9968 6.02549 17.9894 6.04726 17.9823 6.06007C17.9779 6.06792 17.9689 6.08257 17.9361 6.10121L11.4812 9.77494C10.4999 10.3335 9.29686 10.3335 8.31553 9.77494L1.86064 6.1012C1.8279 6.08257 1.81887 6.06792 1.81449 6.06007C1.80735 6.04726 1.8 6.02549 1.8 5.99691C1.8 5.96834 1.80735 5.94656 1.81449 5.93376C1.81887 5.92591 1.8279 5.91126 1.86064 5.89262ZM0.970293 7.66558C-0.323432 6.92927 -0.32343 5.06455 0.970294 4.32824L7.42519 0.654506C8.95851 -0.218169 10.8382 -0.218169 12.3716 0.654507L18.8265 4.32825C19.4727 4.69603 19.7961 5.34533 19.7968 5.99493L19.7984 5.99697V10.097C19.7984 10.594 19.3955 10.997 18.8984 10.997C18.4013 10.997 17.9984 10.594 17.9984 10.097V8.13687L12.3716 11.3393C10.8382 12.212 8.95851 12.212 7.42519 11.3393L0.970293 7.66558Z" fill="#3F8AE0"/>
<path fill-rule="evenodd" clip-rule="evenodd" d="M15.0985 8.09695V10.1053C15.0985 11.5203 15.0978 12.5274 15.0333 13.316C14.9698 14.0941 14.8487 14.5799 14.6516 14.9667C14.2585 15.7382 13.6313 16.3654 12.8598 16.7585C12.4731 16.9555 11.9873 17.0766 11.2092 17.1402C10.8298 17.1712 10.3999 17.1875 9.89839 17.196V18.9962C10.4419 18.9872 10.9246 18.9695 11.3558 18.9342C12.2452 18.8616 12.9942 18.7102 13.677 18.3623C14.7872 17.7966 15.6898 16.894 16.2554 15.7839C16.6033 15.1011 16.7547 14.352 16.8274 13.4626C16.8985 12.5921 16.8985 11.5116 16.8985 10.1451V8.09695H15.0985Z" fill="#3F8AE0"/>
<path fill-rule="evenodd" clip-rule="evenodd" d="M4.79852 8.09695V10.107C4.79852 11.5219 4.79922 12.5291 4.86365 13.3177C4.92723 14.0958 5.04833 14.5816 5.2454 14.9683C5.63848 15.7398 6.2657 16.367 7.03716 16.7601C7.42392 16.9572 7.90972 17.0783 8.68782 17.1418C9.04167 17.1707 9.43945 17.187 9.89839 17.196V18.9962C9.39555 18.9867 8.94574 18.9689 8.54124 18.9359C7.65182 18.8632 6.90278 18.7118 6.21998 18.3639C5.10982 17.7983 4.20723 16.8957 3.64158 15.7855C3.29368 15.1027 3.1423 14.3537 3.06963 13.4642C2.99851 12.5938 2.99851 11.5132 2.99852 10.1467V8.09695H4.79852Z" fill="#3F8AE0"/>
</svg>
